<?xml version="1.0" encoding="UTF-8"?>
<svg width="300px" height="146px" viewBox="0 0 300 146" version="1.1" xmlns="http://www.w3.org/2000/svg" xmlns:xlink="http://www.w3.org/1999/xlink">
    <!-- Generator: Sketch 40.3 (33839) - http://www.bohemiancoding.com/sketch -->
    <title>hltbranding</title>
    <desc>Created with Sketch.</desc>
    <defs></defs>
    <g id="Page-1" stroke="none" stroke-width="1" fill="none" fill-rule="evenodd">
        <g id="hltbranding" fill="#1E4A5A">
            <g id="HLT-Logo-Blue-Dark-Copy" transform="translate(0.000000, 20.000000)">
                <path d="M8.07819805,7.70866764 C8.07819805,6.76470045 8.85335318,6.22840997 9.27496813,6.47877595 C9.43361778,6.51277483 15.3405343,9.01858901 17.0539737,9.74616235 L17.0539737,1.2826378 C17.0539737,0.339857919 17.8176664,-0.18684037 18.2231865,0.0610603788 C18.7597291,0.175245604 45.194884,9.56868122 46.2842955,23.2710314 C41.9684976,12.4767789 20.7153765,4.97520107 20.5616123,4.94737007 L20.5616123,73.3557058 C20.7153765,74.6840109 20.9513499,75.7988606 22.1205628,76.2060531 C25.6282014,77.4276279 42.8947592,83.2307104 47.5716107,96.2608696 C41.7255463,83.6379029 19.3923994,78.6492079 18.6129242,78.2420155 C17.8334489,77.834823 17.0539737,76.4120863 17.0539737,75.7988606 L17.0539737,14.0160941 C16.259975,13.6556707 11.9013902,11.6696011 11.6685083,11.3983427 C11.818083,12.4438014 11.818083,12.7930431 11.6685083,13.8581261 L11.6685083,79.8623137 C11.6685083,80.6822414 11.6685083,81.5021703 13.6631251,82.322097 C14.8598952,82.732062 34.4321205,87.5096567 40.3909902,96.2608696 C33.2103697,87.6516277 9.89354758,85.1661714 10.4717382,85.1918443 C8.89397796,84.9448552 8.07819805,83.5389448 8.07819805,82.322097 L8.07819805,19.4696473 C8.05526996,19.6986177 3.66116773,17.8619933 3.61777901,17.7809299 C3.77066284,18.8060838 3.77066284,19.0934389 3.61777901,20.2238212 L3.61777901,86.1846291 C3.77066284,87.241118 3.37609496,88.6228289 5.59061839,89.4418174 C8.35259352,90.2561175 26.394274,91.3629195 32.3127922,96.2608696 C25.9997062,92.5965327 6.37975414,92.6990058 2.84818172,92.2796928 C-0.683390701,91.8603799 0.0666681175,89.0346719 0.0666681175,87.4060747 L0.0666681175,14.116593 C0.0666681175,13.177827 0.839244626,12.648485 1.25037175,12.8951474 C1.40408525,12.9269992 6.63571227,15.0794215 8.07819805,15.6734953 L8.07819805,7.70866764 Z" id="Rectangle-447"></path>
                <path d="M52.958323,18.3354037 C51.9661976,18.3354037 51.161921,19.1578175 51.161921,20.1658146 L51.161921,94.4304587 C51.161921,95.4413667 51.9651976,96.2608696 52.958323,96.2608696 L92.4492418,96.2608696 C93.4413672,96.2608696 94.2456439,95.4384558 94.2456439,94.4304587 L94.2456439,20.1658146 C94.2456439,19.1549066 93.4423672,18.3354037 92.4492418,18.3354037 L52.958323,18.3354037 L52.958323,18.3354037 Z M55.6498088,22.9192547 L55.6498088,85.2596273 L89.7577561,85.2596273 L89.7577561,22.9192547 L55.6498088,22.9192547 L55.6498088,22.9192547 Z M68.6606849,88.9267081 C67.9193156,88.9267081 67.318317,89.5370911 67.318317,90.3018634 C67.318317,91.0613406 67.9282699,91.6770186 68.6606849,91.6770186 L76.7468799,91.6770186 C77.4882492,91.6770186 78.0892478,91.0666356 78.0892478,90.3018634 C78.0892478,89.5423861 77.4792949,88.9267081 76.7468799,88.9267081 L68.6606849,88.9267081 L68.6606849,88.9267081 Z" id="device-2"></path>
                <path d="M121.172971,85.2596273 C118.776463,85.2596273 116.685083,83.1202009 116.685083,80.6757764 L116.685083,30.2534161 L126.558436,30.2534161 L126.558436,54.089441 L145.407565,54.089441 L145.407565,30.2534161 L155.280918,30.2534161 L155.280918,85.2596273 L145.407565,85.2596273 L145.407565,63.2571429 L126.558436,63.2571429 L126.558436,85.2596273 L120.275393,85.2596273 L121.172971,85.2596273 L121.172971,85.2596273 Z M170.539737,85.2596273 C168.159779,85.2596273 166.051849,83.1202009 166.051849,80.6757764 L166.051849,30.2534161 L175.925202,30.2534161 L175.925202,75.1751553 L197.467063,75.1751553 L197.467063,85.2596273 L169.642159,85.2596273 L170.539737,85.2596273 L170.539737,85.2596273 Z M212.725882,85.2596273 C210.004807,85.2596273 207.922629,83.114459 208.237994,80.6757764 L208.237994,40.3378882 L192.979176,40.3378882 L192.979176,30.2534161 L233.370166,30.2534161 L233.370166,40.3378882 L218.111347,40.3378882 L218.111347,85.2596273 L211.828304,85.2596273 L212.725882,85.2596273 L212.725882,85.2596273 Z" id="HLT-2"></path>
            </g>
        </g>
    </g>
</svg>