<?xml version="1.0" encoding="UTF-8"?>
<svg id="Layer_2" data-name="Layer 2" xmlns="http://www.w3.org/2000/svg" viewBox="0 0 1730.8 129.43">
  <defs>
    <style>
      .cls-1 {
        fill: #e52949;
      }

      .cls-2 {
        fill: #933;
      }
    </style>
  </defs>
  <g id="Bottom_Outline" data-name="Bottom Outline">
    <g>
      <path class="cls-2" d="m948.05,1.43c22.8,0,38.6,8.6,51.4,22l-20.2,19.2c-8.4-8.2-19.2-13.4-31.2-13.4-21.4,0-35.2,16-35.2,36.2s13.8,36.2,35.2,36.2c12,0,22.8-5.2,31.2-13.4l19.6,19.2c-12,12.6-28.6,22-50.8,22-38,0-65-28.2-65-64S910.05,1.43,948.05,1.43Zm31,33l11.4-11c-10.6-10.8-24.4-16.4-42.4-16.4v16.6c11.4,0,22.4,4.2,31,10.8Zm11,73.4l-11.4-11.6c-7.2,6.4-18.6,11-30.6,11v16.6c17.6,0,30.8-5.6,42-16Z"/>
      <path class="cls-2" d="m1073.45,1.43c37.8,0,64.6,28.2,64.6,64s-26.8,64-64.6,64-64.6-28.2-64.6-64,26.6-64,64.6-64Zm0,122c28.8,0,50.6-19.2,56-45.4h-15.4c-4.8,17.4-19.6,29.8-40.6,29.8s-35.8-12.6-40.6-29.8h-15.4c5.2,26.4,27,45.4,56,45.4Zm0-21.8c21.2,0,34.8-16,34.8-36.2s-13.6-36.2-34.8-36.2-34.8,16-34.8,36.2,13.4,36.2,34.8,36.2Z"/>
      <path class="cls-2" d="m1158.45,5.43h41.8c35.4,0,62.8,26,62.8,59.8,0,32-24.4,60.2-62.8,60.2h-41.8V5.43Zm22,114.4V11.03h-14.6v108.8h14.6Zm19.2-21.2c18.8,0,33.2-13.2,33.2-33.4,0-18.6-12.6-33.2-33.2-33.2h-11.8v66.6h11.8Z"/>
      <path class="cls-2" d="m1283.05,5.43h29.4v120h-29.4V5.43Zm22,114.4v-42.8h-14.6v42.8h14.6Z"/>
      <path class="cls-2" d="m1331.65,5.43h31l46.6,71.2V5.43h29.2v120h-30.6l-46.8-71.4v71.4h-29.4V5.43Zm22,114.4V46.63l-14.6-23v96.2h14.6Zm77.4-13.4V11.03h-14.4v73l14.4,22.4Z"/>
      <path class="cls-2" d="m1522.04,1.43c22.2,0,37.6,8.2,50.2,21l-20.4,18.8c-8.2-7.4-18.4-12-29.8-12-21.4,0-35.2,16-35.2,36.2,0,22.2,15.8,36.2,35.8,36.2,21,0,31.2-11.6,32-23.2h-34.2v-25.4h66v11.4c0,35.4-20.8,65-64.4,65-38,0-65-28.2-65-64s27-64,65-64Zm-41,51.6c4.8-17.2,20-29.4,41-29.4,10.6,0,21,3.8,29.4,9.6l11.6-11.2c-10.4-9.8-23.8-15-41-15-29.2,0-51.2,19.4-56.4,46h15.4Z"/>
    </g>
    <g>
      <path class="cls-1" d="m472.64,4h77.4v26h-48v25.6h44.2v25.6h-44.2v42.8h-29.4V4Zm22,114.4V24.4l-14.6-14.8v108.8h14.6Z"/>
      <path class="cls-1" d="m562.24,4h29.4v120h-29.4V4Zm22,114.4v-42.8h-14.6v42.8h14.6Z"/>
      <path class="cls-1" d="m638.84,88.8c0,7,5.6,12.6,12.4,12.6,7.4,0,12-4.2,12-10.4,0-9-11.8-11.6-21.6-15-20.2-7.2-31.4-16.6-31.4-37.2S628.44,0,651.04,0c26.6,0,39.2,17,40.8,39.2h-27.6c0-6.8-4.2-12.4-12.4-12.4-6.4,0-12.6,3.8-12.6,11.6,0,9,11,10.6,21.2,13.6,21.4,6.4,31.4,18.4,31.4,37.2,0,21.2-18,38.8-40.6,38.8-26.2,0-41-17.6-41-39.2h28.6Zm12.4,33.6v-15.4c-10.2-.2-16.6-6-18.4-12.6h-15.6c.4,15,15,28,34,28Zm33.4-88.8c-1.2-11.8-10-28-33.4-28v15.6c12.4,0,16.6,7.4,18.4,12.4h15Z"/>
      <path class="cls-1" d="m711.64,4h29.4v47.2h47V4h29.2v120h-29.2v-47.4h-47v47.4h-29.4V4Zm22,114.4v-41.8h-14.6v41.8h14.6Zm76.2,0v-41.8h-14.4v41.8h14.4Z"/>
    </g>
    <g>
      <path class="cls-1" d="m1609.2,110.16c13-3.6,18.8-14.2,18.8-31.4v-28.4c0-17.4-5.8-28-18.8-31.6V.57c22,0,39.8,20.6,39.8,49.4v29.2c0,28.6-17.8,49.4-39.8,49.4v-18.4Z"/>
      <path class="cls-1" d="m1673.2,60.76l7.2-21.6-18.8-13.6,1-3.2,23.6-.8,8-21h4l7.8,21,23.8.8,1,3.2-19,13.6,7.2,21.6-3.4,1.8-19.8-12.8-19,12.8-3.6-1.8Z"/>
    </g>
    <g>
      <path class="cls-1" d="m14.4,99.96c8.6,0,14.4,5.2,14.4,13.8s-5.8,13.8-14.4,13.8S0,122.36,0,113.76s5.8-13.8,14.4-13.8Z"/>
      <path class="cls-1" d="m48.2,49.96C48.2,21.17,66,.57,88,.57v18.2c-13,3.6-18.8,14.2-18.8,31.6v28.4c0,17.2,5.8,27.8,18.8,31.4v18.4c-22,0-39.8-20.8-39.8-49.4v-29.2Z"/>
    </g>
    <g>
      <path class="cls-2" d="m121,4.57h29.4v53.6h.4L185.4,4.57h32.4l-41.2,57,43.4,63h-32.4l-36.8-58.2h-.4v58.2h-29.4V4.57Zm22,114.4V10.17h-14.6v108.8h14.6Z"/>
      <path class="cls-2" d="m285.2.57c37.8,0,64.6,28.2,64.6,64s-26.8,64-64.6,64-64.6-28.2-64.6-64S247.2.57,285.2.57Zm0,122c28.8,0,50.6-19.2,56-45.4h-15.4c-4.8,17.4-19.6,29.8-40.6,29.8s-35.8-12.6-40.6-29.8h-15.4c5.2,26.4,27,45.4,56,45.4Zm0-21.8c21.2,0,34.8-16,34.8-36.2s-13.6-36.2-34.8-36.2-34.8,16-34.8,36.2,13.4,36.2,34.8,36.2Z"/>
      <path class="cls-2" d="m370.2,4.57h29.4v120h-29.4V4.57Zm22,114.4v-42.8h-14.6v42.8h14.6Z"/>
    </g>
  </g>
</svg>